{"title":"Bad Teacher R5 2011 Stumpie1971","uid":6600924,"size":736677028,"categoryP":"video","categoryS":"movies","magnet":"?xt=urn:btih:3204958558865521d95e6ff3c93073a919b7bb86&amp;dn=Bad+Teacher+R5+2011+Stumpie1971&amp;tr=udp%3A%2F%2Ftracker.openbittorrent.com%3A80&amp;tr=udp%3A%2F%2Fopen.demonii.com%3A1337&amp;tr=udp%3A%2F%2Ftracker.coppersurfer.tk%3A6969&amp;tr=udp%3A%2F%2Fexodus.desync.com%3A6969","seeders":0,"leechers":0,"uploader":"stumpie1971","files":-1,"time":1313204475,"description":"Bad Teacher (2011)\n\n  92 min  -  Comedy   -  17 June 2011 (UK)\n\n5.9 Your rating:   -/10   Ratings: 5.9/10 from 16,218 users   Metascore: 47/100\n\n  Reviews: 116 user | 170 critic | 38 from Metacritic.com\n\nA comedy centered around a foul-mouthed, junior high teacher who, after being dumped\n\n by her sugar daddy, begins to woo a colleague -- a move that pits her against a\n\n well-loved teacher.\n\n\nGeneral\nRELEASE DATE 5/8/2011\nComplete name                    : Bad.Teacher.R5.Line.XVID.AC3-BBRG.avi\nFormat                           : AVI\nFormat/Info                      : Audio Video Interleave\nFile size                        : 1.30 GiB\nDuration                         : 1h 28mn\nOverall bit rate                 : 2 108 Kbps\nWriting library                  : VirtualDub build 30091/release\n\nVideo\nID                               : 0\nFormat                           : MPEG-4 Visual\nFormat profile                   : Advanced Simple@L5\nFormat settings, BVOP            : 2\nFormat settings, QPel            : No\nFormat settings, GMC             : No warppoints\nFormat settings, Matrix          : Default (H.263)\nMuxing mode                      : Packed bitstream\nCodec ID                         : XVID\nCodec ID/Hint                    : XviD\nDuration                         : 1h 28mn\nBit rate                         : 1 650 Kbps\nWidth                            : 720 pixels\nHeight                           : 384 pixels\nDisplay aspect ratio             : 1.875\nFrame rate                       : 25.000 fps\nColor space                      : YUV\nChroma subsampling               : 4:2:0\nBit depth                        : 8 bits\nScan type                        : Progressive\nCompression mode                 : Lossy\nBits/(Pixel*Frame)               : 0.239\nStream size                      : 1.02 GiB (78%)\nWriting library                  : XviD 1.2.1 (UTC 2008-12-04)\n\nAudio\nID                               : 1\nFormat                           : AC-3\nFormat/Info                      : Audio Coding 3\nMode extension                   : CM (complete main)\nCodec ID                         : 2000\nDuration                         : 1h 28mn\nBit rate mode                    : Constant\nBit rate                         : 448 Kbps\nChannel(s)                       : 6 channels\nChannel positions                : Front: L C R, Side: L R, LFE\nSampling rate                    : 48.0 KHz\nBit depth                        : 16 bits\nCompression mode                 : Lossy\nStream size                      : 283 MiB (21%)\nAlignment                        : Aligned on interleaves\nInterleave, duration             : 40 ms (1.00 video frame)\n\n","torrent":{"xt":"urn:btih:3204958558865521d95e6ff3c93073a919b7bb86","amp;dn":"Bad+Teacher+R5+2011+Stumpie1971","amp;tr":["udp%3A%2F%2Ftracker.openbittorrent.com%3A80","udp%3A%2F%2Fopen.demonii.com%3A1337","udp%3A%2F%2Ftracker.coppersurfer.tk%3A6969","udp%3A%2F%2Fexodus.desync.com%3A6969"],"infoHash":"3204958558865521d95e6ff3c93073a919b7bb86","infoHashBuffer":{"type":"Buffer","data":[50,4,149,133,88,134,85,33,217,94,111,243,201,48,115,169,25,183,187,134]},"announce":[],"urlList":[]}}